<?xml version="1.0" encoding="iso-8859-1"?>
<!-- Uploaded to: SVG Repo, www.svgrepo.com, Generator: SVG Repo Mixer Tools -->
<svg fill="#000000" height="800px" width="800px" version="1.1" id="Capa_1" xmlns="http://www.w3.org/2000/svg" xmlns:xlink="http://www.w3.org/1999/xlink" 
	 viewBox="0 0 612 612" xml:space="preserve">
<g>
	<g>
		<circle cx="292.763" cy="322.492" r="32.253"/>
		<circle cx="366.832" cy="366.165" r="19.147"/>
		<path d="M68.267,612h45.379c6.938,0,13-4.686,14.748-11.4l27.935-107.328l4.547-17.47l4.712-18.104
			c32.773,41.591,83.594,68.295,140.653,68.295c56.85,0,107.504-26.512,140.288-67.84l4.704,18.073l4.539,17.439L483.607,600.6
			c1.747,6.715,7.81,11.4,14.748,11.4h45.379c8.417,0,15.239-6.823,15.239-15.239s-6.823-15.239-15.239-15.239h-33.598
			l-30.458-117.018l-4.604-17.686c8.837-0.568,15.831-7.912,15.831-16.893c0-4.234-1.558-8.101-4.126-11.07
			c-3.105-3.589-7.689-5.863-12.806-5.863h-1.313c8.101-20.416,12.557-42.674,12.557-65.974c0-35.94-10.603-69.401-28.838-97.44
			l11.024-11.024l10.945-10.945l29.086-29.086c7.935-7.935,7.935-20.801,0-28.735l-25.547-25.547
			c-7.935-7.935-20.801-7.935-28.736,0l-29.375,29.375L412.8,184.589l-11.054,11.054c-11.43-7.226-23.733-13.191-36.718-17.705
			v-16.105v-15.89V54.784h5.763c11.222,0,20.319-9.098,20.319-20.319V20.319C391.111,9.097,382.013,0,370.792,0h-56.491
			c1.34,2.984,2.091,6.289,2.091,9.771c0,6.976-2.992,13.253-7.761,17.62c-4.25,3.892-9.911,6.268-16.127,6.268
			s-11.878-2.376-16.127-6.268c-4.769-4.367-7.761-10.644-7.761-17.62c0-3.483,0.751-6.788,2.091-9.771h-29.015
			c-11.222,0-20.319,9.098-20.319,20.319v14.146c0,11.222,9.097,20.319,20.319,20.319h5.763v91.158v15.89v16.105
			c-69.964,24.323-120.186,90.833-120.186,169.082c0,23.3,4.456,45.558,12.557,65.974h-1.313c-5.118,0-9.702,2.274-12.806,5.863
			c-2.568,2.969-4.126,6.836-4.126,11.07c0,8.82,6.744,16.062,15.356,16.857l-4.481,17.214l-30.59,117.526H68.266
			c-8.416,0-15.239,6.823-15.239,15.239C53.027,605.177,59.85,612,68.267,612z M306.242,497.322
			c-44.533,0-84.501-19.521-111.834-50.466h223.668C390.743,477.801,350.775,497.322,306.242,497.322z M325.378,107.482
			c10.575,0,19.147,8.573,19.147,19.147c0,5.259-2.121,10.022-5.554,13.482c-3.469,3.498-8.278,5.665-13.594,5.665
			c-6.489,0-12.22-3.231-15.683-8.168c-2.181-3.109-3.464-6.893-3.464-10.978C306.231,116.055,314.803,107.482,325.378,107.482z
			 M247.456,209.954c2.692-2.511,6.107-4.253,9.899-4.883c1.027-0.171,2.081-0.263,3.156-0.263c10.575,0,19.147,8.573,19.147,19.147
			c0,6.145-2.898,11.61-7.398,15.113c-3.244,2.526-7.319,4.034-11.749,4.034c-5.047,0-9.635-1.956-13.055-5.147
			c-3.746-3.495-6.092-8.472-6.092-14.001C241.363,218.427,243.709,213.449,247.456,209.954z M180.148,268.413h252.189
			c14.616,23.064,23.077,50.412,23.077,79.738c0,23.238-5.315,45.234-14.794,64.841H335.27c0.462-1.647,0.714-3.382,0.714-5.177
			c0-10.575-8.573-19.147-19.147-19.147c-10.575,0-19.147,8.573-19.147,19.147c0,1.795,0.252,3.529,0.714,5.177H171.864
			c-9.478-19.607-14.794-41.603-14.794-64.841C157.07,318.825,165.532,291.477,180.148,268.413z"/>
	</g>
</g>
</svg>