<?xml version="1.0" encoding="iso-8859-1"?>
<!-- Uploaded to: SVG Repo, www.svgrepo.com, Generator: SVG Repo Mixer Tools -->
<svg fill="#000000" height="800px" width="800px" version="1.1" id="Capa_1" xmlns="http://www.w3.org/2000/svg" xmlns:xlink="http://www.w3.org/1999/xlink" 
	 viewBox="0 0 612 612" xml:space="preserve">
<g>
	<g>
		<circle cx="306" cy="306.211" r="62.185"/>
		<path d="M534.101,337.23c-7.888-10.304-16.733-20.673-26.417-31.019c9.685-10.345,18.529-20.714,26.417-31.019
			c18.542-24.221,31.031-47.054,37.122-67.866c4.9-16.74,7.995-41.128-5.084-62.243c-17.681-28.546-53.763-34.538-80.918-34.538
			c-22.832,0-48.908,4.001-76.949,11.542c-2.767-9.134-5.748-17.92-8.945-26.293c-10.877-28.487-23.747-51.157-38.253-67.276
			C344.346,9.932,325.123,0,305.483,0h-0.126c-24.837,0-43.908,15.665-55.532,28.67c-14.452,16.167-27.239,38.936-38.007,67.475
			c-3.102,8.221-5.992,16.838-8.677,25.787c-27.819-7.438-53.689-11.383-76.362-11.383c-27.156,0-63.238,5.995-80.918,34.541
			c-13.078,21.115-9.984,45.51-5.084,62.25c6.091,20.812,18.581,43.66,37.122,67.88c7.884,10.298,16.723,20.664,26.402,31.005
			c-9.679,10.339-18.518,20.703-26.402,31.001c-18.541,24.221-31.031,47.054-37.122,67.866c-4.899,16.74-7.995,41.128,5.084,62.243
			c17.681,28.546,53.763,34.538,80.918,34.538c22.841,0,48.926-4.005,76.98-11.55c2.759,9.096,5.729,17.847,8.915,26.191
			c10.876,28.486,23.747,51.05,38.252,67.169C267.652,602.272,286.874,612,306.513,612h0.13c24.838,0,43.908-15.468,55.533-28.472
			c14.452-16.167,27.239-38.739,38.006-67.278c3.087-8.184,5.965-16.76,8.641-25.667c27.831,7.453,53.715,11.409,76.398,11.409
			c0.003,0,0.003,0,0.006,0c27.154,0,63.233-6.052,80.912-34.596c13.078-21.115,9.984-45.56,5.084-62.301
			C565.133,384.283,552.643,361.451,534.101,337.23z M485.221,145.319c14.999,0,41.615,2.348,51.357,18.075
			c11.01,17.776-0.237,51.668-30.087,90.661c-7.007,9.153-14.857,18.377-23.438,27.598c-16.209-15.153-34.084-30.093-53.288-44.532
			c-2.646-28.615-6.9-55.991-12.643-81.374C442.553,148.889,465.693,145.319,485.221,145.319z M384.282,446.482
			c-0.293-0.104-0.585-0.204-0.879-0.308c-12.664-4.488-25.604-9.645-38.679-15.399c9.391-5.288,18.78-10.831,28.133-16.624
			c6.506-4.029,12.915-8.132,19.223-12.297C389.993,417.319,387.384,432.241,384.282,446.482z M354.546,384.59
			c-16.005,9.913-32.282,19.152-48.565,27.593c-16.271-8.447-32.535-17.688-48.528-27.593c-14.5-8.981-28.486-18.32-41.854-27.909
			c-1.148-16.409-1.759-33.215-1.794-50.276c-0.036-17.14,0.509-34.03,1.598-50.523c13.427-9.638,27.479-19.024,42.051-28.05
			c15.995-9.907,32.262-19.141,48.535-27.578c16.281,8.442,32.555,17.68,48.559,27.592c14.503,8.983,28.49,18.323,41.86,27.914
			c1.144,16.389,1.753,33.171,1.789,50.204c0.036,17.162-0.51,34.069-1.602,50.577C383.167,366.18,369.117,375.565,354.546,384.59z
			 M228.186,446.26c-3.112-14.074-5.745-28.815-7.871-44.085c6.181,4.075,12.459,8.09,18.828,12.035
			c9.318,5.772,18.672,11.295,28.028,16.567c-13.04,5.727-25.946,10.865-38.575,15.34
			C228.459,446.164,228.323,446.211,228.186,446.26z M179.397,328.843c-9.042-7.469-17.666-15.028-25.836-22.632
			c8.144-7.582,16.742-15.117,25.754-22.564c-0.202,7.552-0.3,15.157-0.283,22.805C179.048,313.96,179.171,321.427,179.397,328.843z
			 M227.686,165.994c0.304,0.107,0.606,0.211,0.91,0.319c12.646,4.481,25.569,9.626,38.626,15.364
			c-9.373,5.279-18.744,10.812-28.079,16.594c-6.509,4.032-12.922,8.137-19.234,12.304
			C221.99,195.128,224.592,180.221,227.686,165.994z M383.838,166.154c3.114,14.1,5.746,28.868,7.871,44.168
			c-6.188-4.08-12.474-8.1-18.851-12.05c-9.339-5.784-18.713-11.319-28.09-16.6c13.061-5.738,25.987-10.884,38.637-15.367
			C383.548,166.254,383.692,166.205,383.838,166.154z M432.605,283.601c9.036,7.466,17.656,15.021,25.82,22.621
			c-8.141,7.578-16.735,15.11-25.743,22.554c0.204-7.57,0.301-15.193,0.285-22.859C432.952,298.435,432.83,290.993,432.605,283.601z
			 M244.352,108.433c17.335-45.946,40.167-73.402,61.13-73.446c20.905,0,43.843,27.363,61.359,73.239
			c2.93,7.676,5.665,15.739,8.208,24.129c-22.348,7.764-45.552,17.479-69.052,28.944c-23.702-11.564-47.101-21.344-69.626-29.14
			C238.844,123.915,241.502,115.986,244.352,108.433z M75.422,163.394c9.741-15.727,36.358-18.075,51.357-18.075
			c19.402,0,42.367,3.526,67.605,10.3c-5.685,25.476-9.86,52.962-12.408,81.697c-19.106,14.379-36.893,29.252-53.028,44.337
			c-8.581-9.221-16.43-18.445-23.437-27.598C75.659,215.063,64.412,181.171,75.422,163.394z M126.778,467.103
			c-14.999,0-41.615-2.348-51.356-18.075c-11.01-17.776,0.237-51.669,30.087-90.662c7.001-9.146,14.845-18.363,23.418-27.577
			c16.217,15.167,34.103,30.121,53.32,44.574c2.65,28.594,6.906,55.945,12.652,81.306
			C169.459,463.531,146.313,467.103,126.778,467.103z M367.647,503.885c-17.335,45.946-40.167,73.342-61.077,73.342h-0.049
			c-20.908,0-43.847-27.292-61.363-73.167c-2.917-7.639-5.639-15.662-8.172-24.006c22.315-7.754,45.482-17.453,68.945-28.897
			c23.707,11.576,47.113,21.369,69.645,29.179C373.118,488.516,370.477,496.385,367.647,503.885z M536.578,449.086
			c-9.741,15.727-36.353,18.133-51.351,18.133c-0.001,0-0.003,0-0.004,0c-19.409,0-42.382-3.553-67.629-10.346
			c5.693-25.495,9.874-53.004,12.426-81.763c19.102-14.376,36.886-29.246,53.02-44.328c8.586,9.227,16.441,18.456,23.451,27.614
			C536.341,397.388,547.588,431.309,536.578,449.086z"/>
	</g>
</g>
</svg>