<?xml version="1.0" standalone="no"?>
<!DOCTYPE svg PUBLIC "-//W3C//DTD SVG 20010904//EN"
 "http://www.w3.org/TR/2001/REC-SVG-20010904/DTD/svg10.dtd">
<svg version="1.0" xmlns="http://www.w3.org/2000/svg"
 width="500.000000pt" height="500.000000pt" viewBox="0 0 500.000000 500.000000"
 preserveAspectRatio="xMidYMid meet">

<g transform="translate(0.000000,500.000000) scale(0.100000,-0.100000)"
fill="#000000" stroke="none">
<path d="M1439 3631 c-560 -184 -989 -330 -1020 -348 -98 -55 -149 -151 -149
-279 0 -120 73 -244 175 -297 22 -11 492 -171 1045 -354 l1005 -333 1013 347
c1011 347 1013 348 1007 373 -4 14 -10 28 -14 33 -4 4 -452 -146 -997 -334
-544 -187 -996 -341 -1004 -341 -30 -2 -1996 654 -2034 679 -87 56 -125 125
-126 223 0 85 14 133 52 176 35 39 106 79 159 89 28 5 197 -49 983 -314 521
-177 956 -321 964 -321 9 0 408 132 887 294 1143 387 1095 370 1095 377 0 3
-438 150 -974 327 -886 293 -979 322 -1037 321 -56 -1 -188 -41 -1030 -318z"/>
<path d="M220 2495 c0 -9 16 -60 36 -113 133 -354 307 -521 654 -626 47 -14
184 -48 305 -76 121 -28 269 -65 330 -82 260 -72 536 -195 748 -333 l107 -70
0 -43 c0 -54 12 -77 50 -97 49 -25 88 -19 127 20 32 32 35 39 31 80 l-5 44 81
54 c263 175 572 304 921 386 356 83 436 103 510 128 293 96 455 237 575 497
41 89 94 236 87 242 -3 3 -31 -7 -63 -21 -313 -139 -664 -247 -1056 -325 -656
-129 -1028 -392 -1137 -805 -6 -22 -11 -52 -11 -67 0 -53 -17 -27 -38 59 -80
323 -326 559 -737 706 -145 52 -219 72 -420 112 -406 81 -651 157 -1057 329
-34 15 -38 15 -38 1z"/>
</g>
</svg>
